<?xml version="1.0" encoding="utf-8"?>
<!-- Generator: Adobe Illustrator 18.1.1, SVG Export Plug-In . SVG Version: 6.00 Build 0)  -->
<svg version="1.1" id="Layer_1" xmlns="http://www.w3.org/2000/svg" xmlns:xlink="http://www.w3.org/1999/xlink" x="0px" y="0px"
	 viewBox="0 0 125.2 125.2" enable-background="new 0 0 125.2 125.2" xml:space="preserve">
<g>
	<defs>
		<rect id="SVGID_1_" x="0" y="0" width="125.2" height="125.2"/>
	</defs>
	<clipPath id="SVGID_2_">
		<use xlink:href="#SVGID_1_"  overflow="visible"/>
	</clipPath>
	<path clip-path="url(#SVGID_2_)" fill="#939598" d="M24.6,4.9c-10.9,0-19.7,8.9-19.7,19.7v76c0,10.9,8.9,19.7,19.7,19.7h76
		c10.9,0,19.7-8.8,19.7-19.7v-76c0-10.9-8.8-19.7-19.7-19.7H24.6z M100.6,125.2h-76C11,125.2,0,114.2,0,100.6v-76C0,11,11,0,24.6,0
		h76c13.6,0,24.6,11,24.6,24.6v76C125.2,114.2,114.2,125.2,100.6,125.2"/>
	<path clip-path="url(#SVGID_2_)" fill="#939598" d="M86.2,71c-3.1,0-5.6,2.4-5.7,5.4c-0.1,3.1,2.5,5.7,5.6,5.7c3,0,5.5-2.5,5.6-5.6
		C91.7,73.5,89.2,71,86.2,71 M34.4,71c-3.1,0-5.5,2.5-5.5,5.6c0,3,2.5,5.6,5.6,5.6c3.1,0,5.7-2.6,5.6-5.7C40,73.4,37.5,71,34.4,71
		 M21.9,70.8c1.9,0.5,2.9,0,4.1-1.4c4.4-5.5,12.9-5.3,17.3,0.3c0.7,0.9,1.4,1.3,2.6,1.3c9.6,0,19.2,0,28.8,0c1.2,0,2-0.3,2.8-1.3
		c4.2-5.5,12.6-5.9,17-0.5c1.8,2.2,3.5,1.8,5.7,1.6c0-4.5,0-8.8,0-13.2c0-0.4-0.6-1-1-1.3c-1.7-1.2-3.8-2-5.1-3.5
		c-10.2-11.2-28-13.7-40.8-3.1c-4.1,3.4-8.9,5.5-14,6.7c-4.9,1.1-9.7,2.3-14.6,3.4c-1.5,0.3-2.5,1.2-2.5,2.7
		C21.8,65.3,21.9,68,21.9,70.8 M105.6,73.5c-1.7,3.8-5.2,2.9-8.2,3.1c-1.3,7.2-5.6,11.3-11.6,11.1c-5.9-0.2-10.1-4.3-11-11H45.7
		c-0.3,3.5-1.7,6.6-4.6,8.8c-2.1,1.6-4.4,2.3-7,2.3c-5.9-0.2-9.8-4.1-11-11.1c-2.8,0.2-5.5,0-6.8-3.1V61.3c1.3-4.4,4.4-6.5,8.8-7.4
		c4.7-0.9,9.4-2.1,14.1-3.3c3.9-1,7.4-2.7,10.5-5.3c15-12.3,36-9.6,48.2,3.6c1.1,1.2,2.9,1.9,4.5,2.3c1.4,0.3,2.5,0.8,3.3,2V73.5z"
		/>
</g>
</svg>
